<mxfile host="app.diagrams.net" agent="Mozilla/5.0 (Macintosh; Intel Mac OS X 10_15_7) AppleWebKit/537.36 (KHTML, like Gecko) Chrome/131.0.0.0 Safari/537.36" version="25.0.3">
  <diagram name="Page-1" id="ggSJ8mypOS_J4ytZIIng">
    <mxGraphModel dx="1286" dy="711" grid="1" gridSize="10" guides="1" tooltips="1" connect="1" arrows="1" fold="1" page="1" pageScale="1" pageWidth="850" pageHeight="1100" math="0" shadow="0">
      <root>
        <mxCell id="0" />
        <mxCell id="1" parent="0" />
        <mxCell id="DkVJ21mfn2SNYduhz5A--1" value="" style="rounded=0;whiteSpace=wrap;html=1;fillColor=#d5e8d4;strokeColor=#82b366;" vertex="1" parent="1">
          <mxGeometry x="519" y="370" width="203.5" height="340" as="geometry" />
        </mxCell>
        <mxCell id="DkVJ21mfn2SNYduhz5A--2" value="&lt;b&gt;Object&lt;/b&gt;" style="text;html=1;align=center;verticalAlign=middle;whiteSpace=wrap;rounded=0;" vertex="1" parent="1">
          <mxGeometry x="590" y="380" width="60" height="30" as="geometry" />
        </mxCell>
        <mxCell id="DkVJ21mfn2SNYduhz5A--3" value="Klass Word" style="rounded=0;whiteSpace=wrap;html=1;fillColor=#fff2cc;strokeColor=#d6b656;" vertex="1" parent="1">
          <mxGeometry x="525" y="480" width="190" height="30" as="geometry" />
        </mxCell>
        <mxCell id="DkVJ21mfn2SNYduhz5A--4" value="Object body" style="rounded=0;whiteSpace=wrap;html=1;fillColor=#fff2cc;strokeColor=#d6b656;" vertex="1" parent="1">
          <mxGeometry x="526.25" y="560" width="187.5" height="120" as="geometry" />
        </mxCell>
        <mxCell id="DkVJ21mfn2SNYduhz5A--5" value="" style="rounded=0;whiteSpace=wrap;html=1;fillColor=#d5e8d4;strokeColor=#82b366;" vertex="1" parent="1">
          <mxGeometry x="137.5" y="370" width="211.5" height="340" as="geometry" />
        </mxCell>
        <mxCell id="DkVJ21mfn2SNYduhz5A--6" value="&lt;b&gt;Thread-0&lt;/b&gt;" style="text;html=1;align=center;verticalAlign=middle;whiteSpace=wrap;rounded=0;" vertex="1" parent="1">
          <mxGeometry x="204.5" y="380" width="60" height="30" as="geometry" />
        </mxCell>
        <mxCell id="DkVJ21mfn2SNYduhz5A--7" value="" style="rounded=0;whiteSpace=wrap;html=1;fillColor=#dae8fc;strokeColor=#6c8ebf;" vertex="1" parent="1">
          <mxGeometry x="143.25" y="550" width="200" height="130" as="geometry" />
        </mxCell>
        <mxCell id="DkVJ21mfn2SNYduhz5A--8" value="&lt;b&gt;Lock Record&lt;/b&gt;" style="text;html=1;align=center;verticalAlign=middle;whiteSpace=wrap;rounded=0;" vertex="1" parent="1">
          <mxGeometry x="192.75" y="550" width="90" height="30" as="geometry" />
        </mxCell>
        <mxCell id="DkVJ21mfn2SNYduhz5A--9" style="edgeStyle=orthogonalEdgeStyle;rounded=0;orthogonalLoop=1;jettySize=auto;html=1;exitX=0;exitY=0.5;exitDx=0;exitDy=0;entryX=1;entryY=0.5;entryDx=0;entryDy=0;" edge="1" parent="1" source="DkVJ21mfn2SNYduhz5A--10" target="DkVJ21mfn2SNYduhz5A--7">
          <mxGeometry relative="1" as="geometry" />
        </mxCell>
        <mxCell id="DkVJ21mfn2SNYduhz5A--10" value="LockRecordAdress | 00" style="rounded=0;whiteSpace=wrap;html=1;fillColor=#fff2cc;strokeColor=#d6b656;" vertex="1" parent="1">
          <mxGeometry x="525" y="410" width="190" height="30" as="geometry" />
        </mxCell>
        <mxCell id="DkVJ21mfn2SNYduhz5A--11" style="edgeStyle=orthogonalEdgeStyle;rounded=0;orthogonalLoop=1;jettySize=auto;html=1;exitX=0;exitY=0.5;exitDx=0;exitDy=0;entryX=0.5;entryY=0;entryDx=0;entryDy=0;" edge="1" parent="1" source="DkVJ21mfn2SNYduhz5A--12" target="DkVJ21mfn2SNYduhz5A--1">
          <mxGeometry relative="1" as="geometry" />
        </mxCell>
        <mxCell id="DkVJ21mfn2SNYduhz5A--12" value="ObjectReference" style="rounded=0;whiteSpace=wrap;html=1;fillColor=#fff2cc;strokeColor=#d6b656;" vertex="1" parent="1">
          <mxGeometry x="148.25" y="620" width="190" height="30" as="geometry" />
        </mxCell>
        <mxCell id="DkVJ21mfn2SNYduhz5A--13" value="Hashcode | Age | Bias | 01" style="rounded=0;whiteSpace=wrap;html=1;fillColor=#fff2cc;strokeColor=#d6b656;" vertex="1" parent="1">
          <mxGeometry x="148.25" y="580" width="190" height="30" as="geometry" />
        </mxCell>
        <mxCell id="DkVJ21mfn2SNYduhz5A--14" value="" style="rounded=0;whiteSpace=wrap;html=1;fillColor=#dae8fc;strokeColor=#6c8ebf;" vertex="1" parent="1">
          <mxGeometry x="143.25" y="410" width="200" height="130" as="geometry" />
        </mxCell>
        <mxCell id="DkVJ21mfn2SNYduhz5A--15" value="&lt;b&gt;Lock Record&lt;/b&gt;" style="text;html=1;align=center;verticalAlign=middle;whiteSpace=wrap;rounded=0;" vertex="1" parent="1">
          <mxGeometry x="192.75" y="410" width="90" height="30" as="geometry" />
        </mxCell>
        <mxCell id="DkVJ21mfn2SNYduhz5A--18" style="edgeStyle=orthogonalEdgeStyle;rounded=0;orthogonalLoop=1;jettySize=auto;html=1;exitX=0;exitY=0.5;exitDx=0;exitDy=0;entryX=0.5;entryY=0;entryDx=0;entryDy=0;" edge="1" parent="1" source="DkVJ21mfn2SNYduhz5A--16" target="DkVJ21mfn2SNYduhz5A--1">
          <mxGeometry relative="1" as="geometry">
            <Array as="points">
              <mxPoint x="128" y="495" />
              <mxPoint x="128" y="530" />
              <mxPoint x="129" y="530" />
              <mxPoint x="129" y="290" />
              <mxPoint x="621" y="290" />
            </Array>
          </mxGeometry>
        </mxCell>
        <mxCell id="DkVJ21mfn2SNYduhz5A--16" value="ObjectReference" style="rounded=0;whiteSpace=wrap;html=1;fillColor=#fff2cc;strokeColor=#d6b656;" vertex="1" parent="1">
          <mxGeometry x="148.25" y="480" width="190" height="30" as="geometry" />
        </mxCell>
        <mxCell id="DkVJ21mfn2SNYduhz5A--17" value="null" style="rounded=0;whiteSpace=wrap;html=1;fillColor=#fff2cc;strokeColor=#d6b656;" vertex="1" parent="1">
          <mxGeometry x="148.25" y="440" width="190" height="30" as="geometry" />
        </mxCell>
      </root>
    </mxGraphModel>
  </diagram>
</mxfile>
